<svg width="300" height="400" xmlns="http://www.w3.org/2000/svg">
 <title>Icono</title>
 <g id="Layer_1">
  <title>Layer 1</title>
  <line stroke-width="0" filter="url(#svg_3_blur)" stroke-linecap="undefined" stroke-linejoin="undefined" id="svg_3" y2="-30.81613" x2="83.64608" y1="64.18387" x1="23.64608" stroke="#000" fill="none"/>
  <path d="m166.70168,98.2942c0.625,0 1.25,0 1.25,-1.25c0,-0.625 1.34018,-2.45883 1.875,-3.75c0.75635,-1.82597 1.53674,-2.3084 1.875,-3.125c0.47836,-1.15485 0.01672,-1.7314 0.625,-1.875c1.36017,-0.32109 1.875,-1.25 2.5,-1.25c0.625,0 1.05841,-0.28674 1.875,-0.62498c0.57742,-0.23917 1.25,0 1.875,0c1.25,0 2.5,0 4.375,0c0.625,0 1.875,0.62498 2.5,0.62498c1.25,0 1.875,0 2.5,0c0.625,0 1.25,0 1.875,0c1.25,0 1.875,0 2.5,0c1.25,0 1.875,0.625 3.125,0.625c0.625,0 1.13983,0.30391 2.5,0.625c0.60828,0.1436 1.34335,0.29642 1.875,0.625c1.18881,0.73473 2.05804,1.43307 2.49997,1.875c0.44196,0.44194 0.625,1.25 1.25,1.875c0.625,0.625 1.25,1.875 1.875,2.5c1.25,1.25 0.36612,2.24112 1.25,3.125c0.44196,0.44194 0.625,0.625 0.625,1.25c0,1.25 0,1.875 0,2.5c0,0.625 0.2392,1.92258 0,2.5c-0.33826,0.81659 -0.625,2.49998 -0.625,3.12498c0,1.25 -0.625,1.25 -0.625,1.875c0,1.25 0,3.125 0,4.375c0,1.875 0,3.125 0,3.75c0,1.25 0,1.875 0,3.125c0,1.87498 0,3.12498 0,4.37498c0,1.25 0,1.875 0,2.5c0,0.625 0,1.25 0,1.875c0,0.625 0,1.25 0,1.875c0,0.625 0.38583,1.29758 0.625,1.875c0.33826,0.8166 0.625,1.875 0.625,3.125c0,1.875 0.28674,2.3084 0.625,3.125c0.2392,0.57742 0,1.25 0,1.875c0,1.25 0,1.875 0,2.5c0,0.625 -0.44196,1.43304 0,1.875c0.44196,0.44196 0.625,0.625 0.625,1.25c0,1.25 0,1.875 0,3.12497c0,1.25 -0.43079,2.55017 0,4.375c0.32111,1.36017 0.91174,2.30841 1.25,3.125c0.47833,1.15485 0,2.5 0,3.75c0,0.625 0.2392,1.29758 0,1.875c-0.33826,0.81659 -0.77167,1.97015 -1.25,3.125c-0.33826,0.81659 -0.3858,1.29758 -0.625,1.875c-0.33826,0.81659 -1.73141,2.51672 -1.875,3.125c-0.64218,2.72031 -0.9628,3.15845 -1.25,4.375c-0.64218,2.72031 -0.60535,4.00754 -1.875,6.25c-0.43549,0.76917 -0.91174,2.30841 -1.24997,3.12497c-0.23917,0.57742 -0.64172,1.10641 -1.25,1.25c-1.36017,0.32108 -2.50629,1.07278 -5,1.25c-4.40829,0.31329 -6.875,0.625 -9.375,0.625c-2.5,0 -3.69235,-0.31015 -6.25,-0.625c-1.24063,-0.15274 -3.01483,-0.92892 -4.375,-1.25c-0.60828,-0.14359 -0.80804,-0.18304 -1.25,-0.625c-0.44196,-0.44196 -0.28674,-1.05838 -0.625,-1.87497c-0.23917,-0.57742 0,-1.25 0,-1.875c0,-0.625 0.09335,-0.92142 0.625,-1.25c1.18881,-0.73474 0.625,-1.875 0.625,-2.5c0,-0.625 0.625,-1.25 0.625,-1.875c0,-0.625 0,-1.25 0,-2.5c0,-0.625 0,-1.875 0,-2.5c0,-0.625 0,-1.25 0,-1.875c0,-1.25 0.93341,-1.7991 1.25,-3.75c0.30035,-1.8508 -0.13135,-3.17401 0.625,-5c0.53482,-1.29117 1.56015,-2.44235 1.875,-5c0.2291,-1.86096 0.3378,-2.53345 0.625,-3.75c0.32108,-1.36017 0.48141,-2.51672 0.625,-3.12497c0.32108,-1.36017 0.92892,-1.76483 1.25,-3.125c0.14359,-0.60828 0.625,-1.875 0.625,-3.125c0,-0.625 0.38583,-0.67258 0.625,-1.25c0.33826,-0.81659 0.625,-1.875 0.625,-2.5c0,-0.625 0.48141,-1.26672 0.625,-1.875c0.32108,-1.36015 1.25,-3.125 1.25,-4.375c0,-0.625 0,-1.25 0,-1.875c0,-0.625 0.28674,-1.0584 0.625,-1.875c0.47836,-1.15485 0,-1.875 0,-3.75c0,-1.25 0.16031,-3.62311 0.625,-4.37498c1.03906,-1.68124 0.625,-2.5 0.625,-3.125c0,-0.625 -0.14664,-1.34515 -0.625,-2.5c-0.33826,-0.8166 -1.25,-1.875 -1.25,-2.5c0,-0.625 -0.91174,-0.4334 -1.25,-1.25c-0.23917,-0.57742 -0.28674,-1.0584 -0.625,-1.875c-0.23917,-0.57742 0.44196,-1.43306 0,-1.875c-0.44196,-0.44194 -0.625,-0.625 -1.25,-1.25c-0.625,-0.625 -1.05786,-1.36626 -1.875,-2.49998c-0.51682,-0.71704 -1.43304,-1.43306 -1.875,-1.875c-0.44196,-0.44194 -0.14664,-0.72015 -0.625,-1.875c-0.33826,-0.8166 -1.43304,-0.80806 -1.875,-1.25c-0.44196,-0.44194 -0.625,-0.625 -1.25,-0.625c-0.625,0 -1.05841,-0.28676 -1.875,-0.625c-0.57742,-0.23918 -1.25,0 -1.875,0c-0.625,0 -0.38583,0.67258 -0.625,1.25c-0.33826,0.8166 -1.34335,0.95358 -1.875,0.625c-1.18881,-0.73473 -1.25,-1.25 -1.25,-1.875c0,-0.625 0.625,-0.625 0.625,-1.25l0,-0.625l-0.625,0l0,-0.625" id="svg_20" stroke="#000" fill="#bf0000"/>
  <g stroke="null" id="svg_34">
   <rect stroke="#000" fill="#7f7f7f" x="198.65333" y="212.20152" width="9.74359" height="86.15383" id="svg_24" stroke-width="0"/>
   <path stroke="#000" fill="#7f7f7f" opacity="NaN" d="m204.62768,219.89372c50.34347,-0.53181 50.42149,-70.19932 49.92822,-70.73106c0.49326,0.53174 -99.15662,-0.53189 -99.64988,-1.06363c0.49326,0.53174 -0.62182,72.3265 49.72165,71.79469l0.00001,0z" id="svg_22" stroke-width="0"/>
   <path stroke="#000" fill="#7f7f7f" opacity="NaN" d="m260.43687,288.40841z" id="svg_30"/>
   <path stroke="#000" fill="#7f7f7f" opacity="NaN" d="m202.06287,259.72669l0.00292,38.43908l-36.71009,0.52259c16.70744,-3.94298 27.99072,-1.75606 36.70716,-38.96166l0.00001,-0.00001z" id="svg_32" stroke-width="0"/>
   <path stroke="#000" fill="#7f7f7f" opacity="NaN" d="m204.22537,259.90897l-0.00254,38.43907l31.76442,0.52259c-14.45658,-3.94298 -24.21974,-1.75606 -31.76188,-38.96166z" id="svg_33" stroke-width="0"/>
  </g>
  <g transform="rotate(50 98.6428 158.362)" stroke="null" id="svg_19">
   <g stroke="#000" id="svg_17" fill="#666666">
    <path stroke="#000" id="svg_7" d="m80.64393,120.75344c13.84651,-0.31854 14.95815,-56.30201 14.95815,-56.30201c0.65391,-0.45496 6.47369,-0.7507 6.47369,-0.7507c0,0 -0.26154,57.8034 15.10527,57.8034" opacity="NaN" fill="#4B252D"/>
    <rect stroke="#000" rx="15" id="svg_1" height="134.65659" width="41.00003" y="118.36616" x="78.14274" fill="#666666"/>
    <rect stroke="#000" id="svg_2" height="35.85964" width="41.00003" y="172.52153" x="78.14274" fill="#4B252D"/>
   </g>
   <g stroke="null" id="svg_18">
    <ellipse stroke="#000" ry="3.23661" rx="3.01042" id="svg_8" cy="188.9874" cx="89.50459" fill="#5d187f"/>
    <ellipse stroke="#000" ry="3.23661" rx="3.01042" id="svg_4" cy="188.15151" cx="94.47178" fill="#5d187f"/>
    <path stroke="#000" fill="#00ff00" id="svg_15" d="m97.69558,186.08178c0.02596,-0.27711 -0.01282,-0.6439 -0.16911,-0.86044c-0.1563,-0.21653 -0.46804,-0.33535 -0.71504,-0.36448c-0.247,-0.02913 -0.46804,-0.33535 -0.71504,-0.36448c-0.247,-0.02913 -0.494,-0.05825 -0.74099,-0.08737c-0.247,-0.02913 -0.50287,-0.16651 -0.74099,-0.08737c-0.33677,0.11192 -0.51996,0.21885 -0.76696,0.18973c-0.247,-0.02913 -0.50287,-0.16651 -0.74099,-0.08737c-0.33677,0.11192 -0.23511,0.66114 -0.57188,0.77306c-0.23813,0.07913 -0.32695,0.04351 -0.51996,0.21885c-0.19301,0.17535 -0.18041,0.28022 -0.29892,0.52508c-0.16759,0.34629 -0.47538,0.76311 -0.54592,0.49596c-0.09975,-0.37781 0.30779,-0.41682 0.54592,-0.49596c0.33677,-0.11192 0.54592,-0.49596 0.57188,-0.77306c0.02596,-0.27711 0.05192,-0.5542 0.07788,-0.83131c0.02596,-0.27711 0.05192,-0.5542 0.07788,-0.83131c0.02596,-0.27711 0.05192,-0.5542 0.07788,-0.83131c0.02596,-0.27711 0.05192,-0.5542 0.07788,-0.83131c0.02596,-0.27711 -0.03878,-0.3668 -0.19508,-0.58333c-0.1563,-0.21653 -0.49677,-0.23152 -0.71504,-0.36448c-0.30867,-0.18802 -0.44208,-0.61246 -0.19508,-0.58333c0.247,0.02913 0.494,0.05825 0.74099,0.08737c0.247,0.02913 0.5847,-0.12916 0.74099,0.08737c0.1563,0.21653 0.22104,0.30622 0.46804,0.33535c0.247,0.02913 0.22104,0.30622 0.46804,0.33535c0.247,0.02913 0.57395,-0.01438 0.76696,-0.18973c0.19301,-0.17535 0.28183,-0.13972 0.51996,-0.21885c0.33677,-0.11192 0.57188,-0.77306 0.32488,-0.80218c-0.247,-0.02913 -0.05192,0.5542 -0.07788,0.83131c-0.02596,0.27711 0.03878,0.3668 0.19508,0.58333c0.1563,0.21653 0.31636,0.51174 0.41612,0.88956c0.07054,0.26716 0.22104,0.30622 0.19508,0.58333c-0.02596,0.27711 -0.00535,0.51844 0.16911,0.86044c0.27584,0.54074 0.44208,0.61246 0.39015,1.16666l-0.02596,0.27711"/>
    <ellipse stroke="#000" ry="3.23661" rx="3.01042" id="svg_5" cy="187.03699" cx="99.93568" fill="#5d187f"/>
    <ellipse stroke="#000" ry="3.23661" rx="3.01042" id="svg_6" cy="193.16684" cx="91.73983" fill="#5d187f"/>
    <ellipse stroke="#000" ry="3.23661" rx="3.01042" id="svg_9" cy="192.05233" cx="102.66764" fill="#5d187f"/>
    <ellipse stroke="#000" ry="3.23661" rx="3.01042" id="svg_10" cy="192.60959" cx="97.45209" fill="#5d187f"/>
    <path stroke="#000" fill="#00ff00" id="svg_16" d="m98.8996,183.84823c0.24836,0 0.56946,-0.08161 0.74508,-0.27863c0.17561,-0.19702 0.24836,-0.55726 0.24836,-0.83589c0,-0.27863 0.24836,-0.55726 0.24836,-0.83589c0,-0.27863 0,-0.55726 0,-0.83589c0,-0.27863 0.09504,-0.57847 0,-0.83589c-0.13441,-0.36404 -0.24836,-0.55726 -0.24836,-0.83589c0,-0.27863 0.09504,-0.57847 0,-0.83589c-0.13441,-0.36404 -0.61067,-0.19321 -0.74508,-0.55726c-0.09504,-0.25742 -0.07274,-0.36024 -0.24836,-0.55726c-0.17561,-0.19702 -0.26727,-0.172 -0.49672,-0.27863c-0.32449,-0.1508 -0.72618,-0.45063 -0.49672,-0.55726c0.32449,-0.1508 0.40168,0.29984 0.49672,0.55726c0.13441,0.36404 0.49672,0.55726 0.74508,0.55726c0.24836,0 0.49672,0 0.74508,0c0.24836,0 0.49672,0 0.74508,0c0.24836,0 0.49672,0 0.74508,0c0.24836,0 0.49672,0 0.74508,0c0.24836,0 0.3211,-0.08161 0.49672,-0.27863c0.17561,-0.19702 0.15332,-0.57847 0.24836,-0.83589c0.13441,-0.36404 0.49672,-0.55726 0.49672,-0.27863c0,0.27863 0,0.55726 0,0.83589c0,0.27863 0.17561,0.63887 0,0.83589c-0.17561,0.19702 -0.24836,0.27863 -0.24836,0.55726c0,0.27863 -0.24836,0.27863 -0.24836,0.55726c0,0.27863 0.07274,0.63887 0.24836,0.83589c0.17561,0.19702 0.15332,0.29984 0.24836,0.55726c0.13441,0.36404 0.74508,0.55726 0.74508,0.27863c0,-0.27863 -0.49672,0 -0.74508,0c-0.24836,0 -0.3211,0.08161 -0.49672,0.27863c-0.17561,0.19702 -0.42058,0.40646 -0.74508,0.55726c-0.22945,0.10663 -0.24836,0.27863 -0.49672,0.27863c-0.24836,0 -0.46014,0.04823 -0.74508,0.27863c-0.45053,0.3643 -0.49672,0.55726 -0.99344,0.55726l-0.24836,0"/>
    <ellipse stroke="#000" ry="3.23661" rx="3.01042" id="svg_11" cy="186.20111" cx="104.65451" fill="#5d187f"/>
    <ellipse stroke="#000" ry="3.23661" rx="3.01042" id="svg_12" cy="200.96848" cx="98.44553" fill="#5d187f"/>
    <ellipse stroke="#000" ry="3.23661" rx="3.01042" id="svg_13" cy="197.62492" cx="94.72014" fill="#5d187f"/>
    <ellipse stroke="#000" ry="3.23661" rx="3.01042" id="svg_14" cy="196.23177" cx="100.18404" fill="#5d187f"/>
   </g>
  </g>
 </g>
 <defs>
  <filter height="200%" width="200%" y="-50%" x="-50%" id="svg_3_blur">
   <feGaussianBlur stdDeviation="0.1" in="SourceGraphic"/>
  </filter>
 </defs>
</svg>